<?xml version="1.0" encoding="utf-8"?>
<!-- Generator: Adobe Illustrator 16.0.0, SVG Export Plug-In . SVG Version: 6.00 Build 0)  -->
<!DOCTYPE svg PUBLIC "-//W3C//DTD SVG 1.1//EN" "http://www.w3.org/Graphics/SVG/1.1/DTD/svg11.dtd">
<svg version="1.1" id="Layer_1" xmlns="http://www.w3.org/2000/svg" xmlns:xlink="http://www.w3.org/1999/xlink" x="0px" y="0px"
	 width="14.032px" height="14.031px" viewBox="1.046 1.509 14.032 14.031" enable-background="new 1.046 1.509 14.032 14.031"
	 xml:space="preserve">
<path fill="none" stroke="#32AEFA" stroke-width="0.7" stroke-miterlimit="10" d="M6.813,14.67l-0.005,0.005l-0.133,0.099
	l-0.445,0.334c-0.125,0.094-0.294,0.109-0.438,0.039c-0.144-0.071-0.229-0.214-0.229-0.373v-0.555v-0.166v-0.008V13.94v-1.249h-1.25
	H3.063c-0.919,0-1.667-0.747-1.667-1.667V3.526c0-0.919,0.748-1.667,1.667-1.667h9.999c0.919,0,1.666,0.748,1.666,1.667v7.499
	c0,0.92-0.747,1.667-1.666,1.667H9.45L6.813,14.67z"/>
<path fill="#32AEFA" d="M7.944,3.415c-2.028,0-3.672,1.644-3.672,3.672v0.706c0,0.235-0.189,0.424-0.424,0.424
	S3.425,8.027,3.425,7.792V7.086c0-2.496,2.023-4.519,4.52-4.519s4.519,2.023,4.519,4.519V9.63c0,0.857-0.696,1.555-1.556,1.555
	l-2.046,0.532c-0.146,0.252-0.419,0.424-0.733,0.424H7.563c-0.468,0-0.847-0.381-0.847-0.848c0-0.469,0.379-0.848,0.847-0.848h0.565
	c0.314,0,0.588,0.172,0.733,0.424l2.048-0.532c0.391,0,0.706-0.316,0.706-0.707V7.086C11.615,5.058,9.972,3.415,7.944,3.415z"/>
<path fill="#32AEFA" d="M3.849,6.239h0.282c0.313,0,0.565,0.252,0.565,0.564v1.978c0,0.312-0.253,0.565-0.565,0.565H3.849
	c-0.623,0-1.13-0.508-1.13-1.13V7.369C2.719,6.746,3.226,6.239,3.849,6.239z"/>
<path fill="#32AEFA" d="M12.014,6.239c0.623,0,1.13,0.506,1.13,1.13v0.847c0,0.623-0.507,1.13-1.13,1.13h-0.282
	c-0.313,0-0.565-0.254-0.565-0.565V6.804c0-0.313,0.253-0.564,0.565-0.564H12.014z"/>
</svg>
