<?xml version="1.0" encoding="utf-8"?>
<!-- Generator: Adobe Illustrator 16.0.0, SVG Export Plug-In . SVG Version: 6.00 Build 0)  -->
<!DOCTYPE svg PUBLIC "-//W3C//DTD SVG 1.1//EN" "http://www.w3.org/Graphics/SVG/1.1/DTD/svg11.dtd">
<svg version="1.1" id="Layer_1" xmlns="http://www.w3.org/2000/svg" xmlns:xlink="http://www.w3.org/1999/xlink" x="0px" y="0px"
	 width="16px" height="16px" viewBox="0 0 16 16" enable-background="new 0 0 16 16" xml:space="preserve">
<path fill="#32AEFA" d="M8,1.5C4.409,1.5,1.5,4.409,1.5,8v1.25C1.5,9.666,1.166,10,0.75,10S0,9.666,0,9.25V8c0-4.419,3.581-8,8-8
	s8,3.581,8,8v4.503c0,1.519-1.231,2.75-2.753,2.75L9.8,15.25C9.541,15.697,9.057,16,8.5,16h-1C6.672,16,6,15.328,6,14.5
	S6.672,13,7.5,13h1c0.557,0,1.041,0.303,1.3,0.75l3.45,0.003c0.69,0,1.25-0.56,1.25-1.25V8C14.5,4.409,11.591,1.5,8,1.5z M4.5,6.5H5
	c0.553,0,1,0.447,1,1V11c0,0.553-0.447,1-1,1H4.5c-1.103,0-2-0.896-2-2V8.5C2.5,7.397,3.397,6.5,4.5,6.5z M11.5,6.5
	c1.104,0,2,0.897,2,2V10c0,1.104-0.896,2-2,2H11c-0.553,0-1-0.447-1-1V7.5c0-0.553,0.447-1,1-1H11.5z"/>
</svg>
